<?xml version="1.0" encoding="UTF-8" standalone="no"?>
<!-- Created with Inkscape (http://www.inkscape.org/) -->

<svg
   xmlns:dc="http://purl.org/dc/elements/1.1/"
   xmlns:cc="http://creativecommons.org/ns#"
   xmlns:rdf="http://www.w3.org/1999/02/22-rdf-syntax-ns#"
   xmlns:svg="http://www.w3.org/2000/svg"
   xmlns="http://www.w3.org/2000/svg"
   xmlns:sodipodi="http://sodipodi.sourceforge.net/DTD/sodipodi-0.dtd"
   xmlns:inkscape="http://www.inkscape.org/namespaces/inkscape"
   width="210mm"
   height="297mm"
   viewBox="0 0 744.09448819 1052.3622047"
   id="svg2"
   version="1.1"
   inkscape:version="0.91 r13725"
   sodipodi:docname="mark-calculator.svg">
  <defs
     id="defs4" />
  <sodipodi:namedview
     id="base"
     pagecolor="#ffffff"
     bordercolor="#666666"
     borderopacity="1.0"
     inkscape:pageopacity="0.0"
     inkscape:pageshadow="2"
     inkscape:zoom="0.98994949"
     inkscape:cx="496.12711"
     inkscape:cy="569.49918"
     inkscape:document-units="px"
     inkscape:current-layer="layer1"
     showgrid="false"
     inkscape:window-width="1680"
     inkscape:window-height="987"
     inkscape:window-x="-4"
     inkscape:window-y="-4"
     inkscape:window-maximized="1" />
  <metadata
     id="metadata7">
    <rdf:RDF>
      <cc:Work
         rdf:about="">
        <dc:format>image/svg+xml</dc:format>
        <dc:type
           rdf:resource="http://purl.org/dc/dcmitype/StillImage" />
        <dc:title />
      </cc:Work>
    </rdf:RDF>
  </metadata>
  <g
     inkscape:label="1. réteg"
     inkscape:groupmode="layer"
     id="layer1">
    <rect
       style="fill:#828282;fill-opacity:1;stroke:#424141;stroke-width:21.99200058;stroke-miterlimit:4;stroke-dasharray:none;stroke-opacity:1"
       id="rect4142"
       width="316.21759"
       height="433.59839"
       x="213.93845"
       y="228.64954"
       ry="0" />
    <path
       style="fill:#424141;fill-opacity:1;stroke:#424141;stroke-width:19.32463646;stroke-miterlimit:4;stroke-dasharray:none;stroke-opacity:1"
       d="m 248.14978,373.72266 0,28.40429 32.8418,0 0,-28.40429 -32.8418,0 z m 72,0 0,28.40429 32.8418,0 0,-28.40429 -32.8418,0 z m 72,0 0,28.40429 32.8418,0 0,-28.40429 -32.8418,0 z m 70.95117,0.13281 0,28.4043 32.84376,0 0,-28.4043 -32.84376,0 z m -214.95117,69.86719 0,28.40429 32.8418,0 0,-28.40429 -32.8418,0 z m 72,0 0,28.40429 32.8418,0 0,-28.40429 -32.8418,0 z m 72,0 0,28.40429 32.8418,0 0,-28.40429 -32.8418,0 z m 70.95117,0.13281 0,28.4043 32.84376,0 0,-28.4043 -32.84376,0 z m -214.95117,71.02539 0,28.4043 32.8418,0 0,-28.4043 -32.8418,0 z m 72,0 0,28.4043 32.8418,0 0,-28.4043 -32.8418,0 z m 72,0 0,28.4043 32.8418,0 0,-28.4043 -32.8418,0 z m 70.95117,0.13086 0,28.4043 32.84376,0 0,-28.4043 -32.84376,0 z m -214.95117,72.46484 0,28.4043 32.8418,0 0,-28.4043 -32.8418,0 z m 72,0 0,28.4043 32.8418,0 0,-28.4043 -32.8418,0 z m 72,0 0,28.4043 32.8418,0 0,-28.4043 -32.8418,0 z m 70.95117,0.13086 0,28.4043 32.84376,0 0,-28.4043 -32.84376,0 z"
       id="rect4156"
       inkscape:connector-curvature="0" />
    <rect
       style="fill:#424141;fill-opacity:1;stroke:#424141;stroke-width:19.65718269;stroke-miterlimit:4;stroke-dasharray:none;stroke-opacity:1"
       id="rect4230"
       width="208.40593"
       height="50.82214"
       x="267.84427"
       y="270.3266" />
  </g>
</svg>
