<?xml version="1.0" encoding="UTF-8" standalone="no"?>
<!-- Created with Inkscape (http://www.inkscape.org/) -->

<svg
   xmlns:dc="http://purl.org/dc/elements/1.1/"
   xmlns:cc="http://creativecommons.org/ns#"
   xmlns:rdf="http://www.w3.org/1999/02/22-rdf-syntax-ns#"
   xmlns:svg="http://www.w3.org/2000/svg"
   xmlns="http://www.w3.org/2000/svg"
   xmlns:sodipodi="http://sodipodi.sourceforge.net/DTD/sodipodi-0.dtd"
   xmlns:inkscape="http://www.inkscape.org/namespaces/inkscape"
   width="210mm"
   height="297mm"
   viewBox="0 0 744.09448819 1052.3622047"
   id="svg2"
   version="1.1"
   inkscape:version="0.91 r13725"
   sodipodi:docname="settings.svg">
  <defs
     id="defs4" />
  <sodipodi:namedview
     id="base"
     pagecolor="#ffffff"
     bordercolor="#666666"
     borderopacity="1.0"
     inkscape:pageopacity="0.0"
     inkscape:pageshadow="2"
     inkscape:zoom="0.35"
     inkscape:cx="496.09603"
     inkscape:cy="580.72507"
     inkscape:document-units="px"
     inkscape:current-layer="layer1"
     showgrid="false"
     inkscape:window-width="1680"
     inkscape:window-height="987"
     inkscape:window-x="-4"
     inkscape:window-y="-4"
     inkscape:window-maximized="1" />
  <metadata
     id="metadata7">
    <rdf:RDF>
      <cc:Work
         rdf:about="">
        <dc:format>image/svg+xml</dc:format>
        <dc:type
           rdf:resource="http://purl.org/dc/dcmitype/StillImage" />
      </cc:Work>
    </rdf:RDF>
  </metadata>
  <g
     inkscape:label="1. réteg"
     inkscape:groupmode="layer"
     id="layer1">
    <path
       style="stroke:none;stroke-width:20.9;stroke-miterlimit:4;stroke-dasharray:none;stroke-opacity:1;fill:#424242;fill-opacity:1"
       d="M 382.37695 155.69141 A 319.52823 319.52823 0 0 0 347.52344 157.97852 L 325.58203 220.16016 A 261.63217 261.63217 0 0 0 240.77734 255.23633 L 181.25391 227.12109 A 319.52823 319.52823 0 0 0 133.36719 275.45312 L 161.8457 334.99023 A 261.63217 261.63217 0 0 0 126.85547 419.74023 L 64.638672 442.03711 A 319.52823 319.52823 0 0 0 62.849609 475.21875 A 319.52823 319.52823 0 0 0 65.136719 510.07422 L 127.31836 532.01562 A 261.63217 261.63217 0 0 0 162.39453 616.82031 L 134.2793 676.34375 A 319.52823 319.52823 0 0 0 182.61133 724.23047 L 242.14648 695.75195 A 261.63217 261.63217 0 0 0 326.89844 730.74219 L 349.19531 792.95703 A 319.52823 319.52823 0 0 0 382.37695 794.74805 A 319.52823 319.52823 0 0 0 417.23242 792.45898 L 439.17383 730.2793 A 261.63217 261.63217 0 0 0 523.98047 695.20117 L 583.5 723.31641 A 319.52823 319.52823 0 0 0 631.38672 674.98438 L 602.91016 615.45117 A 261.63217 261.63217 0 0 0 637.90039 530.69922 L 700.11719 508.40234 A 319.52823 319.52823 0 0 0 701.90625 475.21875 A 319.52823 319.52823 0 0 0 699.61719 440.36523 L 637.4375 418.42383 A 261.63217 261.63217 0 0 0 602.35938 333.61719 L 630.47461 274.0957 A 319.52823 319.52823 0 0 0 582.14258 226.20898 L 522.60742 254.6875 A 261.63217 261.63217 0 0 0 437.85742 219.69727 L 415.56055 157.48047 A 319.52823 319.52823 0 0 0 382.37695 155.69141 z M 384.39844 356.17383 A 119.04523 119.04523 0 0 1 503.44336 475.21875 A 119.04523 119.04523 0 0 1 384.39844 594.26562 A 119.04523 119.04523 0 0 1 265.35352 475.21875 A 119.04523 119.04523 0 0 1 384.39844 356.17383 z "
       id="path4136" />
  </g>
</svg>
