<?xml version="1.0" encoding="UTF-8" standalone="no"?>
<!-- Created with Inkscape (http://www.inkscape.org/) -->

<svg
   xmlns:dc="http://purl.org/dc/elements/1.1/"
   xmlns:cc="http://creativecommons.org/ns#"
   xmlns:rdf="http://www.w3.org/1999/02/22-rdf-syntax-ns#"
   xmlns:svg="http://www.w3.org/2000/svg"
   xmlns="http://www.w3.org/2000/svg"
   xmlns:sodipodi="http://sodipodi.sourceforge.net/DTD/sodipodi-0.dtd"
   xmlns:inkscape="http://www.inkscape.org/namespaces/inkscape"
   width="210mm"
   height="297mm"
   viewBox="0 0 744.09448819 1052.3622047"
   id="svg6312"
   version="1.1"
   inkscape:version="0.91 r13725"
   sodipodi:docname="faq1.svg">
  <defs
     id="defs6314" />
  <sodipodi:namedview
     id="base"
     pagecolor="#ffffff"
     bordercolor="#666666"
     borderopacity="1.0"
     inkscape:pageopacity="0.0"
     inkscape:pageshadow="2"
     inkscape:zoom="1.4"
     inkscape:cx="178.07199"
     inkscape:cy="537.25453"
     inkscape:document-units="px"
     inkscape:current-layer="layer1"
     showgrid="false"
     inkscape:window-width="1680"
     inkscape:window-height="988"
     inkscape:window-x="-8"
     inkscape:window-y="-8"
     inkscape:window-maximized="1" />
  <metadata
     id="metadata6317">
    <rdf:RDF>
      <cc:Work
         rdf:about="">
        <dc:format>image/svg+xml</dc:format>
        <dc:type
           rdf:resource="http://purl.org/dc/dcmitype/StillImage" />
        <dc:title />
      </cc:Work>
    </rdf:RDF>
  </metadata>
  <g
     inkscape:label="1. réteg"
     inkscape:groupmode="layer"
     id="layer1">
    <g
       transform="matrix(0.77678571,0,0,0.77678571,173.1901,327.31369)"
       id="g3"
       style="fill:#424141;stroke:#424141;stroke-opacity:1;fill-opacity:1"
       inkscape:export-filename="C:\Users\homboli\Documents\GitHub\erettsegik-vagrant\src\img\faq-blue.png"
       inkscape:export-xdpi="27.916803"
       inkscape:export-ydpi="27.916803">
      <path
         inkscape:connector-curvature="0"
         d="M 345.1,77.1 C 317.6,56.2 286.6,49 247.3,49 217.5,49 192,55.1 171.8,68.7 142,89 128,123.1 128,177 l 76.8,0 c 0,-14.4 -1.4,-29.9 7,-43.2 8.4,-13.3 20.1,-23.5 40.2,-23.5 20.4,0 30.9,5.9 40.8,18.1 8.4,10.4 11.6,22.8 11.6,36 0,11.4 -5.8,21.9 -12.7,31.4 -3.8,5.6 -8.8,10.6 -15.1,15.4 0,0 -41.5,24.7 -56.1,48.1 -10.9,17.4 -14.8,39.2 -15.7,65.3 -0.1,1.9 0.6,5.8 7.2,5.8 6.5,0 56,0 61.8,0 5.8,0 7,-4.4 7.1,-6.2 0.4,-9.5 1.6,-24.1 3.3,-29.6 3.3,-10.4 9.7,-19.5 19.7,-27.3 L 324.6,253 c 18.7,-14.6 33.6,-26.5 40.2,-35.9 11.3,-15.4 19.2,-34.4 19.2,-56.9 0,-36.7 -13.5,-63.8 -38.9,-83.1 z M 242,370.2 c -25.9,-0.8 -47.3,17.2 -48.2,45.3 -0.8,28.2 19.5,46.7 45.5,47.5 27,0.8 47.9,-16.6 48.7,-44.7 0.8,-28.1 -19,-47.3 -46,-48.1 z"
         id="path5"
         style="fill:#424141;stroke:#424141;stroke-opacity:1;fill-opacity:1" />
    </g>
  </g>
</svg>
